<svg width="84" height="89" viewBox="0 0 84 89" fill="none" xmlns="http://www.w3.org/2000/svg">
<path d="M70.9167 9.24999H66.5V0.416656H57.6667V9.24999H22.3333V0.416656H13.5V9.24999H9.08333C6.74059 9.24999 4.49379 10.1806 2.83722 11.8372C1.18065 13.4938 0.25 15.7406 0.25 18.0833V79.9167C0.25 82.2594 1.18065 84.5062 2.83722 86.1628C4.49379 87.8193 6.74059 88.75 9.08333 88.75H31.1667V79.9167H9.08333V31.3333H70.9167V35.75H79.75V18.0833C79.75 15.7406 78.8194 13.4938 77.1628 11.8372C75.5062 10.1806 73.2594 9.24999 70.9167 9.24999ZM82.8417 54.9625L78.425 59.3792L69.3708 50.5458L73.7875 46.1292C74.6708 45.2017 76.1725 45.1575 77.1883 46.1292L82.8417 51.7825C83.6808 52.6658 83.6808 54.0792 82.8417 54.9625ZM40 79.6517L66.8092 52.8867L75.8633 61.72L49.0983 88.75H40V79.6517Z" fill="#EBEBEB"/>
</svg>
