<svg width="87" height="83" viewBox="0 0 87 83" fill="none" xmlns="http://www.w3.org/2000/svg">
<path d="M18.5609 51.5076C18.2149 51.8997 17.882 52.3057 17.5614 52.7268C12.7463 59.0508 11.8596 67.2779 14.3767 75.069C16.1096 75.6257 17.9995 75.7061 19.7654 75.258C19.8547 76.9842 20.3982 78.6852 21.3177 80.1514C29.4576 80.3928 37.0869 77.3173 41.8606 71.0476C42.1813 70.6265 42.485 70.1971 42.7708 69.7592C47.5822 62.4013 47.506 52.8465 43.2823 44.3893C43.2494 44.3238 43.2165 44.2583 43.1836 44.1928C43.1112 44.1787 43.0388 44.1647 42.9664 44.1516M18.5609 51.5076C27.0797 53.7868 36.188 50.761 42.9664 44.1516M18.5609 51.5076C24.3764 44.9076 33.6409 42.3954 42.9664 44.1516M18.5609 51.5076C18.055 51.372 17.5501 51.2176 17.0489 51.0445C9.58135 48.464 4.2839 42.1942 2 34.4162C3.11703 33.0923 4.57445 32.0528 6.19734 31.4353C5.22229 29.9027 4.71548 28.0885 4.71266 26.2762C11.381 21.4866 19.5181 19.7828 27.0505 22.3858C27.5517 22.5589 28.0425 22.7488 28.5239 22.9546C36.629 26.4193 41.8926 34.4106 43.0962 43.7792C43.1065 43.8513 43.1159 43.9242 43.1244 43.9972C43.0717 44.0487 43.0191 44.1011 42.9664 44.1516M58.981 21.99C58.7901 31.4737 52.4932 39.6315 43.2927 43.8803C34.2708 39.2694 28.3086 30.8646 28.4995 21.3809C28.6584 13.5168 33.0137 6.56593 39.7413 2C41.352 2.6484 42.7962 3.70661 43.8879 5.05113C45.0519 3.65515 46.6278 2.61472 48.3598 2.0524C54.998 6.88312 59.1408 14.0576 58.981 21.99ZM69.2261 52.0868C60.1027 54.8366 50.3597 51.3981 43.4563 44.0047C45.0754 34.0411 51.2652 25.8009 60.3886 23.0519C67.9539 20.7718 75.9434 22.746 82.3861 27.7021C82.2648 29.4265 81.6987 31.1209 80.7519 32.5693C82.4453 33.2392 83.9272 34.4097 85 35.8749C82.4331 43.6492 76.8564 49.787 69.2261 52.0868ZM43.6265 71.0822C38.1795 63.2977 38.4541 53.0149 43.3876 44.1965C53.4099 42.6499 63.1981 45.9621 68.645 53.7466C73.1621 60.2016 73.7441 68.3726 70.9985 76.0009C69.3126 76.4182 67.5186 76.4069 65.8421 75.9578C65.7246 77.7674 65.0645 79.531 63.9954 81C55.7728 80.9747 48.183 77.5933 43.6265 71.0822Z" stroke="#414141" stroke-width="3" stroke-miterlimit="10"/>
</svg>
