<svg width="306" height="274" viewBox="0 0 306 274" fill="none" xmlns="http://www.w3.org/2000/svg">
<path d="M238.438 40.8776C238.691 40.4744 238.942 40.1303 239.196 39.7271C239.447 39.3829 239.7 38.9797 239.951 38.6355C240.453 37.9472 241.071 37.3229 241.629 36.6961C242.188 36.0692 242.747 35.4424 243.303 34.8746C243.918 34.3093 244.471 33.8005 245.028 33.2327C245.581 32.7239 246.194 32.2177 246.804 31.7704C247.414 31.3231 248.024 30.8759 248.634 30.4286C249.796 29.5316 251.011 28.7551 252.224 28.0376C253.378 27.3177 254.529 26.6567 255.619 26.0523C256.706 25.5069 257.734 24.9591 258.642 24.4652C260.455 23.5366 261.899 22.9471 262.62 22.6819L263.881 22.203L264.665 23.2412C265.113 23.8514 266.005 25.1307 266.987 27.0642C267.204 27.5463 267.476 28.09 267.749 28.6336C267.963 29.1748 268.174 29.775 268.441 30.4367C268.861 31.696 269.274 33.1325 269.561 34.741C269.85 36.2905 270.014 38.0121 270.055 39.8467C270.035 40.3189 270.074 40.7936 270.054 41.2658C270.034 41.7379 270.014 42.2101 269.935 42.6798C269.836 43.6216 269.735 44.6225 269.574 45.6209C269.493 46.1496 269.414 46.6193 269.274 47.1455C269.133 47.6717 268.995 48.1389 268.855 48.6651C268.574 49.7175 268.234 50.7675 267.835 51.8149C267.436 52.8624 266.919 53.9048 266.4 55.0063C265.823 56.0463 265.245 57.1453 264.551 58.1803C263.104 60.2477 261.664 62.1382 260.003 63.6645C259.201 64.4584 258.401 65.1933 257.545 65.8667C256.689 66.5401 255.838 67.0955 255.046 67.6533C254.194 68.2086 253.346 68.705 252.559 69.1448C251.712 69.5821 250.869 69.9604 250.025 70.3386C248.399 71.0387 246.78 71.5616 245.287 71.9125C243.735 72.2609 242.306 72.4962 240.998 72.6775C239.692 72.7998 238.448 72.8655 237.385 72.8207C235.258 72.7901 233.728 72.6073 232.966 72.4568L231.675 72.225L231.553 70.919C231.526 70.1493 231.355 68.6048 231.383 66.5365C231.366 65.5306 231.475 64.3527 231.527 63.1133C231.58 61.8738 231.755 60.5213 231.933 59.1098C232.17 57.7007 232.35 56.2302 232.707 54.7671C232.858 54.0048 233.067 53.245 233.274 52.5442C233.484 51.7844 233.693 51.0246 233.964 50.2082C234.233 49.4509 234.501 48.6936 234.828 47.9388C235.097 47.1814 235.427 46.3676 235.813 45.6153C236.591 43.9925 237.369 42.3698 238.438 40.8776ZM241.314 42.7728C240.873 43.4046 240.492 44.0389 240.11 44.6732C239.729 45.3075 239.404 46.0033 239.084 46.581C238.439 47.8546 237.912 49.1331 237.441 50.4732C236.973 51.7542 236.565 53.0378 236.276 54.2673C235.985 55.5558 235.699 56.7262 235.47 57.9582C235.073 60.3657 234.86 62.6035 234.78 64.4922C234.698 66.4399 234.751 67.9794 234.763 69.1033C235.823 69.2072 237.476 69.2769 239.433 69.123C241.391 68.9691 243.772 68.5966 246.291 67.7569C247.55 67.337 248.871 66.8606 250.199 66.2071C251.528 65.5537 252.863 64.7231 254.202 63.8336C255.543 62.885 256.773 61.7544 258.067 60.5082C259.302 59.2596 260.488 57.7723 261.561 56.1621C262.635 54.5518 263.474 52.8725 264.193 51.2473C264.912 49.6221 265.338 47.9254 265.76 46.3468C265.836 45.9362 265.969 45.587 265.987 45.1739C266.063 44.7632 266.081 44.35 266.155 43.9984C266.246 43.2336 266.337 42.4688 266.37 41.7015C266.402 40.9343 266.432 40.226 266.403 39.5153C266.374 38.8045 266.286 38.0913 266.254 37.4395C266.134 36.0746 265.889 34.8817 265.641 33.7478C265.334 32.6115 264.966 31.5316 264.649 30.6314C263.9 28.7668 263.249 27.3795 262.637 26.4667C261.673 26.8991 260.167 27.5451 258.475 28.4197C257.629 28.857 256.78 29.3533 255.811 29.9037C254.842 30.454 253.87 31.0634 252.839 31.6703C252.352 32.0045 251.865 32.3387 251.378 32.6729C250.832 33.0046 250.342 33.3979 249.852 33.7911C249.363 34.1843 248.814 34.575 248.384 34.9708C248.138 35.1969 247.891 35.423 247.648 35.5901C247.402 35.8162 247.156 36.0424 246.91 36.2685C245.867 37.1705 244.998 38.139 244.065 39.223C243.571 39.7343 243.133 40.3071 242.695 40.8799C242.136 41.5067 241.754 42.141 241.314 42.7728Z" fill="#EBEBEB"/>
<path d="M66.4246 199.528C66.1046 200.106 65.3465 201.257 64.3374 202.751C63.8328 203.499 63.1487 204.298 62.4056 205.094C62.034 205.492 61.601 205.947 61.1704 206.343C60.7373 206.797 60.3042 207.252 59.8736 207.648C58.9509 208.496 57.8487 209.395 56.6334 210.172C56.0258 210.56 55.4156 211.007 54.749 211.393C54.0823 211.779 53.4156 212.165 52.6899 212.548C49.7331 213.96 46.3066 215.294 42.0197 216C38.0869 216.721 34.2946 216.916 30.5787 216.7C26.9219 216.486 23.5726 215.99 20.5309 215.211C14.3859 213.71 9.75385 211.386 7.61987 210.114L6.86181 211.264C6.60828 211.668 6.41378 212.073 6.16275 212.417L4.76216 214.782L3.36157 217.148C2.91356 217.956 2.409 218.704 2.02 219.515C0.345967 222.756 -1.44363 225.932 -2.88407 229.241C-3.66206 230.864 -4.44255 232.546 -5.16152 234.171L-7.20788 239.229C-7.53786 240.043 -7.92933 240.913 -8.25931 241.727L-9.19521 244.289L-11.008 249.416L-14.2733 248.332L-12.3966 243.09L-11.4582 240.468C-11.1257 239.596 -10.7367 238.784 -10.4043 237.911L-8.29638 232.797C-7.57491 231.113 -6.7354 229.434 -5.95491 227.752C-4.45296 224.386 -2.66089 221.151 -0.925343 217.854C-0.536345 217.042 -0.0292996 216.236 0.418721 215.427L1.81932 213.062L3.2199 210.697C3.47342 210.294 3.66792 209.888 3.92144 209.485L4.67952 208.334C3.18232 207.384 -1.18627 204.421 -5.1626 199.168C-7.18028 196.541 -9.05252 193.269 -10.4227 189.308C-11.6773 185.412 -12.4864 180.766 -12.1417 175.4C-11.6815 170.098 -10.3459 165.07 -8.27288 160.782C-7.75339 159.68 -7.23638 158.638 -6.66285 157.657C-6.08682 156.617 -5.51328 155.636 -4.8857 154.776C-3.62557 152.937 -2.3139 151.277 -1.0072 149.736C-0.325584 148.996 0.297013 148.254 0.917116 147.571C1.59624 146.89 2.27288 146.268 2.888 145.703C4.17976 144.515 5.40502 143.503 6.50726 142.603C8.70924 140.863 10.5272 139.817 11.435 139.323L12.8273 138.554L13.7318 139.538C14.8624 140.768 18.1188 144.867 20.5748 151.12C21.8052 154.187 22.8903 157.899 23.4857 162.004C23.7551 164.025 23.9581 166.222 23.984 168.411C23.9616 168.942 23.9957 169.534 23.9708 170.125C23.9459 170.715 23.98 171.308 23.8961 171.895C23.8463 173.076 23.7349 174.313 23.6261 175.491C23.4283 177.374 23.056 179.192 22.6887 180.891C22.3189 182.649 21.895 184.287 21.3581 185.801C27.8276 178.21 34.8083 171.114 42.4134 164.635C41.2903 163.228 37.9724 159.186 35.7525 152.943C34.6426 149.822 33.8502 146.181 33.7319 141.978C33.7177 140.913 33.7035 139.849 33.8098 138.73C33.9137 137.67 34.02 136.551 34.2469 135.378C34.6392 133.089 35.3315 130.694 36.2674 128.131C36.7353 126.85 37.3188 125.633 37.9564 124.537C38.5964 123.381 39.2339 122.285 39.9305 121.191C41.3211 119.062 42.8248 117.056 44.4956 115.293C46.1664 113.531 47.8887 111.948 49.6036 110.542C50.4623 109.81 51.375 109.198 52.2287 108.584C53.0824 107.969 53.9926 107.416 54.8438 106.861C58.2412 104.817 61.4956 103.358 64.0759 102.461C66.6586 101.506 68.6288 101.057 69.5831 100.861L71.0735 100.569L71.6139 101.774C72.319 103.282 74.301 108.155 74.8484 114.8C75.1221 118.123 75.0807 121.906 74.4367 125.958C74.2763 126.956 74.0544 128.011 73.8325 129.066C73.6106 130.121 73.3297 131.174 72.9872 132.283C72.3639 134.444 71.5045 136.595 70.522 138.86C68.8995 142.28 67.1714 145.4 65.2297 147.979L68.445 146.045C69.5373 145.381 70.5705 144.715 71.6578 144.17L74.9272 142.357L78.2531 140.605C82.6662 138.308 87.1335 136.131 91.7088 134.196C91.0087 132.57 89.0857 127.7 88.6564 121.059C88.2246 114.478 89.4071 106.073 95.0826 97.6799C100.761 89.2279 108.35 84.5223 114.667 81.9508C120.984 79.3793 126.207 78.8902 127.868 78.7829L129.171 78.7197L129.591 79.979C130.114 81.5975 131.619 86.5685 131.635 93.1914C131.651 99.8143 130.122 108.027 124.7 116.017C122.618 119.122 120.26 121.743 117.864 123.888C127.169 120.556 136.582 117.465 145.942 114.253C145.362 112.573 143.919 107.545 143.9 100.982C143.882 94.4177 145.347 86.3201 150.173 78.4234C155.003 70.4677 160.984 66.0491 166.059 63.4843C171.133 60.9195 175.364 60.152 176.79 59.9757L177.919 59.8459L178.519 61.0538C179.283 62.5642 181.447 67.3265 182.476 73.7556C182.991 76.9702 183.191 80.6445 182.67 84.584C182.149 88.5235 180.909 92.6692 178.605 96.8291C177.709 98.4468 176.7 99.9415 175.64 101.257C174.579 102.572 173.462 103.825 172.29 104.959C176.861 103.141 181.434 101.265 185.95 99.3267C190.41 97.3272 194.874 95.2097 199.226 92.9691C198.405 91.3972 196.241 86.6348 195.035 80.1982C194.461 76.9812 194.082 73.3585 194.126 69.5171C194.17 65.6757 194.636 61.6157 195.694 57.5805C196.194 55.5322 196.805 53.6659 197.406 52.0358C197.736 51.2219 198.066 50.4081 198.391 49.7123C198.718 48.9574 199.043 48.2616 199.427 47.5683C200.193 46.2407 200.894 45.0287 201.706 43.9986C202.519 42.9686 203.269 41.9952 204.071 41.2012C204.873 40.4073 205.614 39.6699 206.409 39.0531C206.775 38.7729 207.142 38.4927 207.508 38.2126C207.875 37.9324 208.18 37.7088 208.485 37.4851C209.154 37.0404 209.76 36.7111 210.244 36.436C210.729 36.1608 211.093 35.9396 211.393 35.834L212.237 35.4558L213.205 36.3244C214.456 37.5006 218.271 40.9727 221.763 46.5006C225.198 51.9669 228.128 59.5996 226.436 68.8702C225.972 71.4523 225.167 73.7242 224.187 75.9297C223.727 77.0336 223.094 78.0121 222.52 78.993C221.888 79.9715 221.317 80.8934 220.63 81.7514C221.649 81.4396 222.728 81.0713 223.806 80.762C224.883 80.4527 226.076 80.2074 227.269 79.9621C229.598 79.41 232.212 79.1064 234.942 78.8668C244.851 78.0433 253.296 79.7005 259.639 82.0967C265.985 84.4339 270.105 87.6824 271.298 88.8561L272.266 89.7247L271.375 91.2244C271.06 91.6842 270.614 92.434 270.043 93.3559C269.413 94.2754 268.601 95.3054 267.664 96.5075C267.167 97.0778 266.667 97.7071 266.106 98.3929C265.547 99.0197 264.927 99.7031 264.248 100.384C262.892 101.687 261.411 103.161 259.699 104.508C257.986 105.855 256.153 107.256 254.094 108.411C252.033 109.624 249.915 110.777 247.509 111.739C246.365 112.223 245.165 112.646 243.906 113.066C242.649 113.426 241.392 113.787 240.081 114.028C237.513 114.629 234.842 114.871 232.122 114.874C227.039 114.837 222.704 113.885 218.981 112.428C215.317 110.972 212.269 108.952 209.813 106.897C204.902 102.787 202.133 98.354 200.921 96.2335C196.752 98.3634 192.525 100.432 188.248 102.321C183.97 104.21 179.636 106.037 175.307 107.747C176.664 107.804 178.017 107.979 179.426 108.216C180.835 108.453 182.303 108.692 183.763 109.109C188.504 110.255 192.625 112.084 196.207 114.068C199.787 116.111 202.705 118.422 205.148 120.772C209.978 125.41 212.565 129.954 213.329 131.464L213.929 132.672L212.765 133.628C211.235 134.864 206.346 138.62 199.262 141.159C192.175 143.757 183.009 145.203 173.429 142.434C164.432 139.866 158.439 134.765 154.388 129.864C150.338 124.963 148.236 120.144 147.383 117.921C138.565 120.919 129.75 123.858 120.988 126.917C123.636 127.206 126.393 127.737 129.25 128.685C138.346 131.73 144.493 137.369 148.529 142.625C152.564 147.88 154.428 152.748 154.951 154.366L155.371 155.626L154.276 156.348C152.876 157.294 148.384 160.061 142.282 161.755C136.12 163.446 128.405 164.125 119.72 161.157C117.739 160.482 115.821 159.692 114.028 158.729C112.293 157.828 110.621 156.812 109.126 155.803C106.083 153.664 103.519 151.368 101.371 149.031C97.0745 144.356 94.5438 139.874 93.5145 137.642C85.0797 141.366 76.8044 145.511 68.9714 150.383C71.5833 150.139 74.3648 150.079 77.2985 150.616C79.6494 150.952 81.8107 151.575 83.7876 152.368C84.776 152.765 85.7645 153.161 86.6323 153.612C87.5592 154.065 88.4246 154.574 89.29 155.084C92.6336 157.117 95.367 159.597 97.5717 161.996C101.979 166.853 104.263 171.562 104.968 173.07L105.509 174.275L104.707 175.069C103.661 176.03 100.347 178.906 95.6433 181.072C95.0406 181.342 94.438 181.612 93.7788 181.821C93.1171 182.089 92.4579 182.298 91.7987 182.506C90.4213 182.921 88.9848 183.334 87.3813 183.502C85.7777 183.671 84.0536 183.894 82.219 183.935C81.2722 183.954 80.3278 183.914 79.3245 183.872C78.3236 183.771 77.2637 183.667 76.2628 183.565C74.3226 183.306 72.3873 182.929 70.5136 182.495C68.6423 182.002 66.8351 181.394 65.1459 180.79C61.7699 179.524 58.7016 177.976 55.9923 176.324C50.5738 173.021 46.8253 169.374 45.1859 167.591C38.191 173.622 31.7073 180.148 25.6218 187.045C26.2245 186.775 26.8271 186.505 27.4863 186.296C27.7864 186.191 28.1455 186.088 28.4481 185.923C28.8072 185.82 29.1073 185.714 29.4664 185.611C30.8414 185.255 32.2138 184.959 33.7018 184.726C34.8922 184.539 36.0211 184.41 37.0859 184.395C37.6196 184.359 38.2123 184.325 38.7435 184.347C39.2747 184.37 39.8649 184.394 40.3961 184.417C42.5184 184.566 44.5742 184.889 46.4455 185.382C50.247 186.37 53.4949 187.867 56.3197 189.582C61.9128 192.952 65.4768 196.768 66.6049 198.058L67.5094 199.042L66.4246 199.528ZM58.1842 156.609L53.8492 159.856L51.6522 161.478C50.919 162.038 50.2449 162.601 49.5707 163.164C48.7661 164.017 48.1435 164.759 47.6464 165.329C49.2293 167.052 52.6976 170.332 57.4818 173.253C62.266 176.175 68.5333 178.982 75.5344 179.81C77.2976 180.061 78.9477 180.19 80.5438 180.198C81.3135 180.172 82.0833 180.145 82.794 180.116C83.5073 180.028 84.2771 180.001 84.9313 179.911C87.7227 179.614 90.0619 178.826 92.2265 177.972C92.7677 177.758 93.2498 177.542 93.7935 177.269C94.2756 177.053 94.7577 176.837 95.2424 176.562C96.1501 176.068 96.9989 175.571 97.727 175.129C99.2449 174.188 100.409 173.232 101.203 172.615C100.108 170.559 97.6775 166.495 93.6464 162.54C91.6603 160.564 89.2021 158.569 86.3723 156.971C84.9292 156.142 83.422 155.428 81.7328 154.824C80.1026 154.223 78.2879 153.792 76.4091 153.476C72.8828 152.973 69.5651 153.128 66.4686 153.648C63.3646 154.345 60.5998 155.411 58.1842 156.609ZM108.886 130.664C107.204 131.302 105.519 132 103.777 132.636L98.7249 134.669C97.6941 135.276 96.9019 135.834 96.2943 136.222C98.3627 140.449 105.714 152.584 119.998 157.385C127.168 159.816 133.685 159.5 139.057 158.307C144.431 157.056 148.66 154.929 150.603 153.71C148.835 149.378 142.521 136.459 127.596 131.453C120.716 129.153 114.201 129.41 108.886 130.664ZM163.256 111.673C159.832 112.947 156.352 114.16 152.874 115.314C151.787 115.86 150.938 116.356 150.33 116.744C151.244 118.911 153.251 123.194 156.969 127.549C158.827 129.756 161.16 131.924 163.975 133.875C166.79 135.827 170.089 137.504 174.063 138.617C181.951 140.842 189.556 139.981 195.671 137.992C201.842 136.065 206.46 133.126 208.598 131.501C207.443 129.442 204.831 125.489 200.502 121.581C196.173 117.673 190.184 113.873 182.404 111.889C175.145 110.164 168.687 110.483 163.256 111.673ZM215.738 86.9846C214.949 87.4834 214.218 87.9847 213.428 88.4835L211.062 89.9209C209.482 90.9186 207.849 91.7957 206.272 92.7343C205.295 93.4617 204.501 94.0786 203.947 94.5873C205.166 96.5308 207.896 100.489 212.476 104.053C217.058 107.557 223.541 110.846 232.412 110.807C234.657 110.842 236.8 110.519 238.944 110.136C240.017 109.945 241.032 109.692 242.051 109.381C243.069 109.069 244.028 108.754 245.049 108.384C246.011 108.01 246.973 107.637 247.878 107.202C248.783 106.767 249.691 106.274 250.537 105.836C251.386 105.34 252.235 104.844 253.024 104.345C253.814 103.846 254.606 103.288 255.339 102.728C258.326 100.607 260.732 98.2253 262.711 96.1802C264.633 94.0736 266.011 92.2397 266.83 91.0327C265.061 89.5389 261.095 86.8292 255.563 84.8219C254.164 84.349 252.706 83.8736 251.127 83.4522C249.548 83.0308 247.847 82.7225 246.145 82.4142C244.382 82.1624 242.614 82.0286 240.666 81.9464C238.777 81.8667 236.766 81.9001 234.749 82.0515C226.982 82.5515 220.747 84.5944 215.738 86.9846ZM222.819 67.7125C223.135 65.8337 223.33 64.009 223.284 62.2924C223.298 60.5783 223.075 58.8542 222.726 57.3023C222.38 55.6912 221.97 54.1958 221.438 52.8134C220.907 51.3719 220.313 50.0461 219.654 48.8358C217.025 43.8764 213.862 40.3727 212.277 38.7094C211.551 39.0927 210.459 39.7561 209.295 40.7121C208.075 41.6067 206.722 42.8504 205.356 44.3891C205.043 44.7898 204.672 45.1881 204.357 45.6478C203.985 46.046 203.67 46.5057 203.353 47.0244C203.038 47.4842 202.72 48.0029 202.4 48.5807C202.082 49.0994 201.762 49.6772 201.442 50.2549C200.861 51.4129 200.273 52.748 199.741 54.1446C199.209 55.5412 198.788 57.1198 198.361 58.8165C196.715 65.6057 196.844 72.3516 197.79 77.9495C198.737 83.5473 200.444 87.9356 201.478 90.0487C203.692 89.4325 208.136 87.7872 212.602 84.2506C213.704 83.3511 214.809 82.3926 215.862 81.2545C216.915 80.1164 217.912 78.9168 218.857 77.5377C219.743 76.156 220.575 74.6538 221.294 73.0286C221.9 71.2804 222.444 69.5887 222.819 67.7125ZM175.377 94.8599C179.21 88.1038 179.797 81.2108 179.263 75.6304C178.733 69.9909 177.087 65.5461 176.174 63.379C174.265 63.7715 170.32 64.7875 165.958 67.2642C161.597 69.7408 156.698 73.7321 152.757 80.2471C150.786 83.5341 149.463 86.8486 148.559 90.0624C147.714 93.2787 147.287 96.3943 147.165 99.2864C146.982 105.014 147.968 109.667 148.584 111.881C150.901 111.624 155.55 110.756 160.737 108.314C165.93 105.754 171.545 101.616 175.377 94.8599ZM121.592 113.994C126.01 107.381 127.598 100.589 127.839 94.8642C128.081 89.1391 127.095 84.4856 126.481 82.2129C124.164 82.4699 119.459 83.2765 114.033 85.7673C108.665 88.2606 102.517 92.4357 97.9099 99.3365C93.3025 106.237 91.9437 113.216 91.9947 119.013C92.0458 124.809 93.391 129.359 94.1867 131.522C96.5134 131.029 101.113 129.922 106.249 127.301C111.445 124.682 117.175 120.607 121.592 113.994ZM67.1535 137.417C68.0005 135.561 68.668 133.756 69.2173 131.946C69.7667 130.136 70.1956 128.381 70.5039 126.679C71.123 123.217 71.2575 120.029 71.0844 117.125C70.7973 111.318 69.334 106.763 68.4793 104.598C67.1634 104.957 65.2448 105.585 62.8391 106.548C61.6363 107.03 60.3669 107.685 59.0361 108.398C58.3694 108.784 57.7053 109.11 56.9771 109.553C56.3079 109.998 55.5797 110.44 54.8515 110.882C51.9928 112.772 49.1067 115.311 46.4393 118.273C45.7577 119.013 45.1351 119.755 44.5075 120.615C43.8824 121.417 43.3139 122.28 42.8019 123.204C41.7213 124.991 40.6948 126.899 39.8428 128.874C39.3873 129.86 39.0474 130.909 38.7689 131.903C38.4905 132.896 38.2711 133.892 38.0542 134.829C37.6769 136.764 37.4816 138.589 37.4069 140.36C37.319 143.844 37.8337 147.059 38.661 149.873C40.2591 155.439 42.8687 159.452 44.208 161.341C45.2363 160.793 46.8107 159.913 48.6361 158.69C50.4591 157.525 52.5946 155.96 54.745 154.04C54.991 153.814 55.2986 153.531 55.5446 153.305C55.7907 153.079 56.0983 152.796 56.4033 152.573C56.9569 152.064 57.513 151.496 58.0691 150.928C59.1813 149.793 60.2395 148.537 61.3026 147.162C62.3658 145.788 63.4314 144.355 64.3865 142.74C65.4031 141.068 66.3066 139.273 67.1535 137.417ZM20.0948 175.105C20.3565 173.106 20.4387 171.158 20.4004 169.264C20.3812 168.318 20.362 167.371 20.2813 166.48C20.2006 165.59 20.12 164.7 20.0368 163.869C19.591 160.42 18.7762 157.311 17.7694 154.549C15.7557 149.025 13.023 145.125 11.5632 143.29C10.4069 144.069 8.6995 145.297 6.73609 146.988C5.75438 147.834 4.70869 148.795 3.59898 149.871C2.5458 151.01 1.49013 152.207 0.426988 153.581C-0.636154 154.955 -1.70178 156.388 -2.65435 157.944C-3.60941 159.56 -4.51044 161.295 -5.29591 163.095C-5.68989 164.025 -6.08387 164.954 -6.41883 165.886C-6.75379 166.818 -7.09123 167.809 -7.31064 168.805C-7.81096 170.853 -8.13672 172.968 -8.34692 175.147C-8.76482 179.445 -8.10538 183.434 -7.18247 186.784C-6.20302 190.196 -4.78553 193.035 -3.17353 195.468C0.0504683 200.334 3.7083 203.327 5.60121 204.707C6.0318 204.311 6.52887 203.741 7.08746 203.114C7.64855 202.429 8.33017 201.689 9.01427 200.89C10.444 199.235 11.9552 197.052 13.4198 194.572C14.1803 193.362 14.9458 192.035 15.5983 190.584C16.3098 189.136 16.9083 187.565 17.5067 185.993C18.1052 184.422 18.6521 182.672 19.0834 180.857C19.3003 179.92 19.4582 178.981 19.6161 178.041C19.833 177.104 19.9934 176.106 20.0948 175.105ZM63.0412 198.439C61.3353 196.83 57.862 193.668 52.8882 191.034C50.4001 189.747 47.5504 188.621 44.2701 187.891C43.4488 187.739 42.6275 187.586 41.8062 187.433C40.9823 187.339 40.0995 187.242 39.2707 187.267C37.5001 187.192 35.6629 187.292 33.7593 187.566C26.6785 188.627 21.2071 192.181 17.3784 196.04C16.2538 197.47 15.2447 198.965 14.179 200.398C13.1699 201.893 12.0453 203.324 11.0362 204.818C10.5192 205.861 10.1842 206.793 9.91824 207.491C11.9392 208.641 16.2246 210.773 21.6663 212.126C24.4178 212.774 27.5261 213.378 30.7698 213.574C34.0135 213.77 37.3926 213.558 40.9048 212.997C42.6904 212.717 44.3064 212.253 45.7453 211.782C46.466 211.517 47.1867 211.251 47.9074 210.986C48.6281 210.721 49.2898 210.453 49.895 210.124C51.1618 209.527 52.3131 208.866 53.3489 208.141C54.4412 207.478 55.4179 206.75 56.3356 206.02C57.1943 205.288 57.9939 204.553 58.6755 203.813C59.4137 203.135 60.0363 202.392 60.5949 201.766C61.7736 200.455 62.5932 199.248 63.0412 198.439Z" fill="#EBEBEB"/>
</svg>
