<svg width="360" height="274" viewBox="0 0 360 274" fill="none" xmlns="http://www.w3.org/2000/svg">
<path d="M292.438 40.8777C292.691 40.4745 292.942 40.1304 293.196 39.7272C293.447 39.383 293.7 38.9798 293.951 38.6357C294.453 37.9473 295.071 37.323 295.63 36.6962C296.188 36.0694 296.747 35.4425 297.303 34.8747C297.918 34.3094 298.472 33.8006 299.028 33.2328C299.581 32.7241 300.194 32.2178 300.804 31.7705C301.414 31.3233 302.024 30.876 302.634 30.4287C303.796 29.5317 305.011 28.7552 306.224 28.0377C307.378 27.3178 308.529 26.6568 309.619 26.0524C310.706 25.5071 311.734 24.9592 312.642 24.4653C314.455 23.5367 315.899 22.9472 316.62 22.682L317.881 22.2031L318.665 23.2414C319.113 23.8515 320.005 25.1308 320.987 27.0643C321.204 27.5465 321.476 28.0901 321.749 28.6338C321.963 29.1749 322.174 29.7751 322.441 30.4368C322.861 31.6962 323.274 33.1326 323.561 34.7411C323.85 36.2906 324.014 38.0122 324.055 39.8469C324.035 40.319 324.074 40.7937 324.054 41.2659C324.034 41.738 324.014 42.2102 323.935 42.6799C323.836 43.6218 323.735 44.6226 323.575 45.621C323.493 46.1497 323.414 46.6194 323.274 47.1456C323.133 47.6718 322.995 48.139 322.855 48.6652C322.574 49.7177 322.234 50.7676 321.835 51.815C321.436 52.8625 320.919 53.9049 320.4 55.0064C319.824 56.0464 319.245 57.1454 318.551 58.1804C317.104 60.2479 315.664 62.1383 314.003 63.6646C313.201 64.4586 312.401 65.1935 311.545 65.8668C310.689 66.5402 309.838 67.0956 309.046 67.6534C308.194 68.2088 307.346 68.7051 306.559 69.1449C305.712 69.5822 304.869 69.9605 304.025 70.3388C302.399 71.0388 300.78 71.5618 299.287 71.9126C297.735 72.261 296.306 72.4964 294.998 72.6777C293.692 72.7999 292.448 72.8657 291.385 72.8208C289.258 72.7902 287.728 72.6074 286.966 72.457L285.675 72.2251L285.553 70.9192C285.526 70.1494 285.355 68.6049 285.383 66.5366C285.366 65.5308 285.475 64.3528 285.527 63.1134C285.58 61.8739 285.755 60.5214 285.933 59.1099C286.17 57.7008 286.35 56.2303 286.707 54.7672C286.858 54.0049 287.067 53.2451 287.274 52.5443C287.484 51.7845 287.693 51.0247 287.964 50.2083C288.233 49.451 288.501 48.6937 288.829 47.9389C289.097 47.1816 289.427 46.3677 289.813 45.6154C290.591 43.9927 291.369 42.3699 292.438 40.8777ZM295.314 42.7729C294.873 43.4047 294.492 44.039 294.11 44.6733C293.729 45.3076 293.404 46.0034 293.084 46.5812C292.439 47.8547 291.912 49.1333 291.441 50.4733C290.973 51.7544 290.565 53.0379 290.276 54.2674C289.985 55.5559 289.699 56.7264 289.47 57.9583C289.073 60.3658 288.86 62.6036 288.78 64.4923C288.698 66.44 288.751 67.9796 288.763 69.1035C289.823 69.2073 291.476 69.2771 293.433 69.1232C295.391 68.9693 297.772 68.5967 300.291 67.757C301.55 67.3371 302.871 66.8607 304.199 66.2072C305.528 65.5538 306.863 64.7233 308.202 63.8337C309.543 62.8851 310.773 61.7545 312.067 60.5083C313.302 59.2597 314.488 57.7724 315.561 56.1622C316.635 54.5519 317.474 52.8727 318.193 51.2475C318.912 49.6223 319.338 47.9256 319.76 46.3469C319.836 45.9363 319.969 45.5871 319.987 45.174C320.063 44.7633 320.081 44.3502 320.155 43.9985C320.246 43.2337 320.337 42.4689 320.37 41.7017C320.402 40.9344 320.432 40.2261 320.403 39.5154C320.374 38.8046 320.286 38.0914 320.254 37.4397C320.134 36.0747 319.889 34.8818 319.641 33.748C319.334 32.6116 318.966 31.5318 318.649 30.6315C317.9 28.767 317.249 27.3796 316.637 26.4669C315.673 26.8992 314.168 27.5452 312.475 28.4198C311.629 28.8571 310.78 29.3534 309.811 29.9038C308.842 30.4542 307.87 31.0635 306.839 31.6704C306.352 32.0046 305.865 32.3388 305.378 32.673C304.832 33.0048 304.342 33.398 303.852 33.7912C303.363 34.1844 302.814 34.5752 302.384 34.9709C302.138 35.197 301.892 35.4231 301.648 35.5902C301.402 35.8164 301.156 36.0425 300.91 36.2686C299.867 37.1706 298.998 38.1391 298.065 39.2232C297.571 39.7344 297.133 40.3072 296.695 40.88C296.136 41.5068 295.754 42.1411 295.314 42.7729Z" fill="#EBEBEB"/>
<path d="M120.425 199.528C120.105 200.106 119.346 201.257 118.337 202.751C117.833 203.499 117.149 204.298 116.406 205.094C116.034 205.492 115.601 205.947 115.17 206.343C114.737 206.797 114.304 207.252 113.874 207.648C112.951 208.496 111.849 209.395 110.633 210.172C110.026 210.56 109.416 211.007 108.749 211.393C108.082 211.779 107.416 212.165 106.69 212.548C103.733 213.96 100.307 215.294 96.0197 216C92.0869 216.721 88.2946 216.916 84.5787 216.7C80.9219 216.486 77.5726 215.99 74.5309 215.211C68.3859 213.71 63.7538 211.386 61.6199 210.114L60.8618 211.264C60.6083 211.668 60.4138 212.073 60.1628 212.417L58.7622 214.782L57.3616 217.148C56.9136 217.956 56.409 218.704 56.02 219.515C54.346 222.756 52.5564 225.932 51.1159 229.241C50.3379 230.864 49.5574 232.546 48.8385 234.171L46.7921 239.229C46.4621 240.043 46.0707 240.913 45.7407 241.727L44.8048 244.289L42.992 249.416L39.7267 248.332L41.6034 243.09L42.5418 240.468C42.8743 239.596 43.2633 238.784 43.5957 237.911L45.7036 232.797C46.4251 231.113 47.2646 229.434 48.0451 227.752C49.547 224.386 51.3391 221.151 53.0747 217.854C53.4637 217.042 53.9707 216.236 54.4187 215.427L55.8193 213.062L57.2199 210.697C57.4734 210.294 57.6679 209.888 57.9214 209.485L58.6795 208.334C57.1823 207.384 52.8137 204.421 48.8374 199.168C46.8197 196.541 44.9475 193.269 43.5773 189.308C42.3227 185.412 41.5136 180.766 41.8583 175.4C42.3185 170.098 43.6541 165.07 45.7271 160.782C46.2466 159.68 46.7636 158.638 47.3372 157.657C47.9132 156.617 48.4867 155.636 49.1143 154.776C50.3744 152.937 51.6861 151.277 52.9928 149.736C53.6744 148.996 54.297 148.254 54.9171 147.571C55.5962 146.89 56.2729 146.268 56.888 145.703C58.1798 144.515 59.405 143.503 60.5073 142.603C62.7092 140.863 64.5272 139.817 65.435 139.323L66.8273 138.554L67.7318 139.538C68.8624 140.768 72.1188 144.867 74.5748 151.12C75.8052 154.187 76.8903 157.899 77.4857 162.004C77.7551 164.025 77.9581 166.222 77.984 168.411C77.9616 168.942 77.9957 169.534 77.9708 170.125C77.9459 170.715 77.98 171.308 77.8961 171.895C77.8462 173.076 77.7349 174.313 77.6261 175.491C77.4283 177.374 77.056 179.192 76.6887 180.891C76.3189 182.649 75.895 184.287 75.3581 185.801C81.8276 178.21 88.8083 171.114 96.4134 164.635C95.2903 163.228 91.9724 159.186 89.7525 152.943C88.6426 149.822 87.8502 146.181 87.7319 141.978C87.7177 140.913 87.7035 139.849 87.8098 138.73C87.9137 137.67 88.02 136.551 88.2469 135.378C88.6392 133.089 89.3315 130.694 90.2674 128.131C90.7353 126.85 91.3188 125.633 91.9564 124.537C92.5964 123.381 93.2339 122.285 93.9305 121.191C95.3211 119.062 96.8248 117.056 98.4956 115.293C100.166 113.531 101.889 111.948 103.604 110.542C104.462 109.81 105.375 109.198 106.229 108.584C107.082 107.969 107.993 107.416 108.844 106.861C112.241 104.817 115.496 103.358 118.076 102.461C120.659 101.506 122.629 101.057 123.583 100.861L125.074 100.569L125.614 101.774C126.319 103.282 128.301 108.155 128.848 114.8C129.122 118.123 129.081 121.906 128.437 125.958C128.276 126.956 128.054 128.011 127.832 129.066C127.611 130.121 127.33 131.174 126.987 132.283C126.364 134.444 125.504 136.595 124.522 138.86C122.9 142.28 121.171 145.4 119.23 147.979L122.445 146.045C123.537 145.381 124.571 144.715 125.658 144.17L128.927 142.357L132.253 140.605C136.666 138.308 141.133 136.131 145.709 134.196C145.009 132.57 143.086 127.7 142.656 121.059C142.225 114.478 143.407 106.073 149.083 97.6799C154.761 89.2279 162.35 84.5223 168.667 81.9508C174.984 79.3793 180.207 78.8902 181.868 78.7829L183.171 78.7197L183.591 79.979C184.114 81.5975 185.619 86.5685 185.635 93.1914C185.651 99.8143 184.122 108.027 178.7 116.017C176.618 119.122 174.26 121.743 171.864 123.888C181.169 120.556 190.582 117.465 199.942 114.253C199.362 112.573 197.919 107.545 197.9 100.982C197.882 94.4177 199.347 86.3201 204.173 78.4234C209.003 70.4677 214.984 66.0491 220.059 63.4843C225.133 60.9195 229.364 60.152 230.79 59.9757L231.919 59.8459L232.519 61.0538C233.283 62.5642 235.447 67.3265 236.476 73.7556C236.991 76.9702 237.191 80.6445 236.67 84.584C236.149 88.5235 234.909 92.6692 232.605 96.8291C231.709 98.4468 230.7 99.9415 229.64 101.257C228.579 102.572 227.462 103.825 226.29 104.959C230.861 103.141 235.434 101.265 239.95 99.3267C244.41 97.3272 248.874 95.2097 253.226 92.9691C252.405 91.3972 250.241 86.6348 249.035 80.1982C248.461 76.9812 248.082 73.3585 248.126 69.5171C248.17 65.6757 248.636 61.6157 249.694 57.5805C250.194 55.5322 250.805 53.6659 251.406 52.0358C251.736 51.2219 252.066 50.4081 252.391 49.7123C252.718 48.9574 253.043 48.2616 253.427 47.5683C254.193 46.2407 254.894 45.0287 255.706 43.9986C256.519 42.9686 257.269 41.9952 258.071 41.2012C258.873 40.4073 259.614 39.6699 260.409 39.0531C260.775 38.7729 261.142 38.4927 261.508 38.2126C261.875 37.9324 262.18 37.7088 262.485 37.4851C263.154 37.0404 263.76 36.7111 264.244 36.436C264.729 36.1608 265.093 35.9396 265.393 35.834L266.237 35.4558L267.205 36.3244C268.456 37.5006 272.271 40.9727 275.763 46.5006C279.198 51.9669 282.128 59.5996 280.436 68.8702C279.972 71.4523 279.167 73.7242 278.187 75.9297C277.727 77.0336 277.094 78.0121 276.52 78.993C275.888 79.9715 275.317 80.8934 274.63 81.7514C275.649 81.4396 276.728 81.0713 277.806 80.762C278.883 80.4527 280.076 80.2074 281.269 79.9621C283.598 79.41 286.212 79.1064 288.942 78.8668C298.851 78.0433 307.296 79.7005 313.639 82.0967C319.985 84.4339 324.105 87.6824 325.298 88.8561L326.266 89.7247L325.375 91.2244C325.06 91.6842 324.614 92.434 324.043 93.3559C323.413 94.2754 322.601 95.3054 321.664 96.5075C321.167 97.0778 320.667 97.7071 320.106 98.3929C319.547 99.0197 318.927 99.7031 318.248 100.384C316.892 101.687 315.411 103.161 313.699 104.508C311.986 105.855 310.153 107.256 308.094 108.411C306.033 109.624 303.915 110.777 301.509 111.739C300.365 112.223 299.165 112.646 297.906 113.066C296.649 113.426 295.392 113.787 294.081 114.028C291.513 114.629 288.842 114.871 286.122 114.874C281.039 114.837 276.704 113.885 272.981 112.428C269.317 110.972 266.269 108.952 263.813 106.897C258.902 102.787 256.133 98.354 254.921 96.2335C250.752 98.3634 246.525 100.432 242.248 102.321C237.97 104.21 233.636 106.037 229.307 107.747C230.664 107.804 232.017 107.979 233.426 108.216C234.835 108.453 236.303 108.692 237.763 109.109C242.504 110.255 246.625 112.084 250.207 114.068C253.787 116.111 256.705 118.422 259.148 120.772C263.978 125.41 266.565 129.954 267.329 131.464L267.929 132.672L266.765 133.628C265.235 134.864 260.346 138.62 253.262 141.159C246.175 143.757 237.009 145.203 227.429 142.434C218.432 139.866 212.439 134.765 208.388 129.864C204.338 124.963 202.236 120.144 201.383 117.921C192.565 120.919 183.75 123.858 174.988 126.917C177.636 127.206 180.393 127.737 183.25 128.685C192.346 131.73 198.493 137.369 202.529 142.625C206.564 147.88 208.428 152.748 208.951 154.366L209.371 155.626L208.276 156.348C206.876 157.294 202.384 160.061 196.282 161.755C190.12 163.446 182.405 164.125 173.72 161.157C171.739 160.482 169.821 159.692 168.028 158.729C166.293 157.828 164.621 156.812 163.126 155.803C160.083 153.664 157.519 151.368 155.371 149.031C151.074 144.356 148.544 139.874 147.515 137.642C139.08 141.366 130.804 145.511 122.971 150.383C125.583 150.139 128.365 150.079 131.298 150.616C133.649 150.952 135.811 151.575 137.788 152.368C138.776 152.765 139.764 153.161 140.632 153.612C141.559 154.065 142.425 154.574 143.29 155.084C146.634 157.117 149.367 159.597 151.572 161.996C155.979 166.853 158.263 171.562 158.968 173.07L159.509 174.275L158.707 175.069C157.661 176.03 154.347 178.906 149.643 181.072C149.041 181.342 148.438 181.612 147.779 181.821C147.117 182.089 146.458 182.298 145.799 182.506C144.421 182.921 142.985 183.334 141.381 183.502C139.778 183.671 138.054 183.894 136.219 183.935C135.272 183.954 134.328 183.914 133.324 183.872C132.324 183.771 131.264 183.667 130.263 183.565C128.323 183.306 126.387 182.929 124.514 182.495C122.642 182.002 120.835 181.394 119.146 180.79C115.77 179.524 112.702 177.976 109.992 176.324C104.574 173.021 100.825 169.374 99.1859 167.591C92.191 173.622 85.7073 180.148 79.6218 187.045C80.2245 186.775 80.8271 186.505 81.4863 186.296C81.7864 186.191 82.1455 186.088 82.4481 185.923C82.8072 185.82 83.1073 185.714 83.4664 185.611C84.8414 185.255 86.2138 184.959 87.7018 184.726C88.8922 184.539 90.0211 184.41 91.0859 184.395C91.6196 184.359 92.2123 184.325 92.7435 184.347C93.2747 184.37 93.8649 184.394 94.3961 184.417C96.5184 184.566 98.5742 184.889 100.445 185.382C104.247 186.37 107.495 187.867 110.32 189.582C115.913 192.952 119.477 196.768 120.605 198.058L121.509 199.042L120.425 199.528ZM112.184 156.609L107.849 159.856L105.652 161.478C104.919 162.038 104.245 162.601 103.571 163.164C102.766 164.017 102.143 164.759 101.646 165.329C103.229 167.052 106.698 170.332 111.482 173.253C116.266 176.175 122.533 178.982 129.534 179.81C131.298 180.061 132.948 180.19 134.544 180.198C135.314 180.172 136.083 180.145 136.794 180.116C137.507 180.028 138.277 180.001 138.931 179.911C141.723 179.614 144.062 178.826 146.227 177.972C146.768 177.758 147.25 177.542 147.793 177.269C148.276 177.053 148.758 176.837 149.242 176.562C150.15 176.068 150.999 175.571 151.727 175.129C153.245 174.188 154.409 173.232 155.203 172.615C154.108 170.559 151.678 166.495 147.646 162.54C145.66 160.564 143.202 158.569 140.372 156.971C138.929 156.142 137.422 155.428 135.733 154.824C134.103 154.223 132.288 153.792 130.409 153.476C126.883 152.973 123.565 153.128 120.469 153.648C117.365 154.345 114.6 155.411 112.184 156.609ZM162.886 130.664C161.204 131.302 159.519 132 157.777 132.636L152.725 134.669C151.694 135.276 150.902 135.834 150.294 136.222C152.363 140.449 159.714 152.584 173.998 157.385C181.168 159.816 187.685 159.5 193.057 158.307C198.431 157.056 202.66 154.929 204.603 153.71C202.835 149.378 196.521 136.459 181.596 131.453C174.716 129.153 168.201 129.41 162.886 130.664ZM217.256 111.673C213.832 112.947 210.352 114.16 206.874 115.314C205.787 115.86 204.938 116.356 204.33 116.744C205.244 118.911 207.251 123.194 210.969 127.549C212.827 129.756 215.16 131.924 217.975 133.875C220.79 135.827 224.089 137.504 228.063 138.617C235.951 140.842 243.556 139.981 249.671 137.992C255.842 136.065 260.46 133.126 262.598 131.501C261.443 129.442 258.831 125.489 254.502 121.581C250.173 117.673 244.184 113.873 236.404 111.889C229.145 110.164 222.687 110.483 217.256 111.673ZM269.738 86.9846C268.949 87.4834 268.218 87.9847 267.428 88.4835L265.062 89.9209C263.482 90.9186 261.849 91.7957 260.272 92.7343C259.295 93.4617 258.501 94.0786 257.947 94.5873C259.166 96.5308 261.896 100.489 266.476 104.053C271.058 107.557 277.541 110.846 286.412 110.807C288.657 110.842 290.8 110.519 292.944 110.136C294.017 109.945 295.032 109.692 296.051 109.381C297.069 109.069 298.028 108.754 299.049 108.384C300.011 108.01 300.973 107.637 301.878 107.202C302.783 106.767 303.691 106.274 304.537 105.836C305.386 105.34 306.235 104.844 307.024 104.345C307.814 103.846 308.606 103.288 309.339 102.728C312.326 100.607 314.732 98.2253 316.711 96.1802C318.633 94.0736 320.011 92.2397 320.83 91.0327C319.061 89.5389 315.095 86.8292 309.563 84.8219C308.164 84.349 306.706 83.8736 305.127 83.4522C303.548 83.0308 301.847 82.7225 300.145 82.4142C298.382 82.1624 296.614 82.0286 294.666 81.9464C292.777 81.8667 290.766 81.9001 288.749 82.0515C280.982 82.5515 274.747 84.5944 269.738 86.9846ZM276.819 67.7125C277.135 65.8337 277.33 64.009 277.284 62.2924C277.298 60.5783 277.075 58.8542 276.726 57.3023C276.38 55.6912 275.97 54.1958 275.438 52.8134C274.907 51.3719 274.313 50.0461 273.654 48.8358C271.025 43.8764 267.862 40.3727 266.277 38.7094C265.551 39.0927 264.459 39.7561 263.295 40.7121C262.075 41.6067 260.722 42.8504 259.356 44.3891C259.043 44.7898 258.672 45.1881 258.357 45.6478C257.985 46.046 257.67 46.5057 257.353 47.0244C257.038 47.4842 256.72 48.0029 256.4 48.5807C256.082 49.0994 255.762 49.6772 255.442 50.2549C254.861 51.4129 254.273 52.748 253.741 54.1446C253.209 55.5412 252.788 57.1198 252.361 58.8165C250.715 65.6057 250.844 72.3516 251.79 77.9495C252.737 83.5473 254.444 87.9356 255.478 90.0487C257.692 89.4325 262.136 87.7872 266.602 84.2506C267.704 83.3511 268.809 82.3926 269.862 81.2545C270.915 80.1164 271.912 78.9168 272.857 77.5377C273.743 76.156 274.575 74.6538 275.294 73.0286C275.9 71.2804 276.444 69.5887 276.819 67.7125ZM229.377 94.8599C233.21 88.1038 233.797 81.2108 233.263 75.6304C232.733 69.9909 231.087 65.5461 230.174 63.379C228.265 63.7715 224.32 64.7875 219.958 67.2642C215.597 69.7408 210.698 73.7321 206.757 80.2471C204.786 83.5341 203.463 86.8486 202.559 90.0624C201.714 93.2787 201.287 96.3943 201.165 99.2864C200.982 105.014 201.968 109.667 202.584 111.881C204.901 111.624 209.55 110.756 214.737 108.314C219.93 105.754 225.545 101.616 229.377 94.8599ZM175.592 113.994C180.01 107.381 181.598 100.589 181.839 94.8642C182.081 89.1391 181.095 84.4856 180.481 82.2129C178.164 82.4699 173.459 83.2765 168.033 85.7673C162.665 88.2606 156.517 92.4357 151.91 99.3365C147.302 106.237 145.944 113.216 145.995 119.013C146.046 124.809 147.391 129.359 148.187 131.522C150.513 131.029 155.113 129.922 160.249 127.301C165.445 124.682 171.175 120.607 175.592 113.994ZM121.154 137.417C122.001 135.561 122.668 133.756 123.217 131.946C123.767 130.136 124.196 128.381 124.504 126.679C125.123 123.217 125.257 120.029 125.084 117.125C124.797 111.318 123.334 106.763 122.479 104.598C121.163 104.957 119.245 105.585 116.839 106.548C115.636 107.03 114.367 107.685 113.036 108.398C112.369 108.784 111.705 109.11 110.977 109.553C110.308 109.998 109.58 110.44 108.852 110.882C105.993 112.772 103.107 115.311 100.439 118.273C99.7577 119.013 99.1351 119.755 98.5075 120.615C97.8824 121.417 97.3139 122.28 96.8019 123.204C95.7213 124.991 94.6948 126.899 93.8428 128.874C93.3873 129.86 93.0474 130.909 92.7689 131.903C92.4905 132.896 92.2711 133.892 92.0542 134.829C91.6769 136.764 91.4816 138.589 91.4069 140.36C91.319 143.844 91.8337 147.059 92.661 149.873C94.259 155.439 96.8687 159.452 98.208 161.341C99.2363 160.793 100.811 159.913 102.636 158.69C104.459 157.525 106.595 155.96 108.745 154.04C108.991 153.814 109.299 153.531 109.545 153.305C109.791 153.079 110.098 152.796 110.403 152.573C110.957 152.064 111.513 151.496 112.069 150.928C113.181 149.793 114.24 148.537 115.303 147.162C116.366 145.788 117.431 144.355 118.386 142.74C119.403 141.068 120.307 139.273 121.154 137.417ZM74.0947 175.105C74.3565 173.106 74.4387 171.158 74.4003 169.264C74.3812 168.318 74.362 167.371 74.2813 166.48C74.2006 165.59 74.12 164.7 74.0368 163.869C73.591 160.42 72.7762 157.311 71.7694 154.549C69.7557 149.025 67.023 145.125 65.5632 143.29C64.4069 144.069 62.6995 145.297 60.7361 146.988C59.7544 147.834 58.7087 148.795 57.599 149.871C56.5458 151.01 55.4901 152.207 54.427 153.581C53.3638 154.955 52.2982 156.388 51.3456 157.944C50.3906 159.56 49.4896 161.295 48.7041 163.095C48.3101 164.025 47.9161 164.954 47.5812 165.886C47.2462 166.818 46.9088 167.809 46.6894 168.805C46.189 170.853 45.8633 172.968 45.6531 175.147C45.2352 179.445 45.8946 183.434 46.8175 186.784C47.797 190.196 49.2145 193.035 50.8265 195.468C54.0505 200.334 57.7083 203.327 59.6012 204.707C60.0318 204.311 60.5289 203.741 61.0875 203.114C61.6485 202.429 62.3302 201.689 63.0143 200.89C64.444 199.235 65.9552 197.052 67.4197 194.572C68.1803 193.362 68.9458 192.035 69.5983 190.584C70.3098 189.136 70.9083 187.565 71.5067 185.993C72.1052 184.422 72.6521 182.672 73.0834 180.857C73.3003 179.92 73.4582 178.981 73.6161 178.041C73.833 177.104 73.9934 176.106 74.0947 175.105ZM117.041 198.439C115.335 196.83 111.862 193.668 106.888 191.034C104.4 189.747 101.55 188.621 98.2701 187.891C97.4488 187.739 96.6275 187.586 95.8062 187.433C94.9823 187.339 94.0995 187.242 93.2707 187.267C91.5001 187.192 89.6629 187.292 87.7593 187.566C80.6785 188.627 75.2071 192.181 71.3784 196.04C70.2538 197.47 69.2447 198.965 68.179 200.398C67.1699 201.893 66.0453 203.324 65.0362 204.818C64.5192 205.861 64.1842 206.793 63.9182 207.491C65.9392 208.641 70.2246 210.773 75.6662 212.126C78.4178 212.774 81.5261 213.378 84.7698 213.574C88.0135 213.77 91.3926 213.558 94.9048 212.997C96.6904 212.717 98.3064 212.253 99.7453 211.782C100.466 211.517 101.187 211.251 101.907 210.986C102.628 210.721 103.29 210.453 103.895 210.124C105.162 209.527 106.313 208.866 107.349 208.141C108.441 207.478 109.418 206.75 110.336 206.02C111.194 205.288 111.994 204.553 112.676 203.813C113.414 203.135 114.036 202.392 114.595 201.766C115.774 200.455 116.593 199.248 117.041 198.439Z" fill="#EBEBEB"/>
</svg>
