<svg width="79" height="58" viewBox="0 0 79 58" fill="none" xmlns="http://www.w3.org/2000/svg">
<path d="M78.0488 29.717C77.7534 29.1976 77.3576 28.7423 76.8845 28.3775C76.4113 28.0126 75.8703 27.7456 75.2929 27.592C72.674 26.9223 69.9611 26.6979 67.2678 26.9279C68.8183 20.0781 67.8056 14.6726 66.7863 11.5217C66.4306 10.4085 65.6731 9.46778 64.6615 8.88278C63.6498 8.29779 62.4566 8.11049 61.3144 8.35741C57.7691 9.15259 54.4128 10.6311 51.4332 12.7103C49.3596 8.19933 46.2244 4.25757 42.2957 1.22206C41.4896 0.614656 40.5077 0.286133 39.4983 0.286133C38.489 0.286133 37.5071 0.614656 36.701 1.22206C32.7744 4.25891 29.6406 8.20039 27.5668 12.7103C24.5864 10.6304 21.2288 9.15177 17.6822 8.35741C16.54 8.11079 15.3469 8.29866 14.3358 8.88435C13.3246 9.47004 12.568 10.4115 12.2137 11.525C11.1943 14.676 10.1816 20.0814 11.7322 26.9312C9.03883 26.7012 6.32594 26.9257 3.70702 27.5953C3.12964 27.7489 2.58862 28.0159 2.11548 28.3808C1.64234 28.7456 1.24654 29.201 0.951156 29.7203C0.640722 30.254 0.439732 30.8443 0.35992 31.4565C0.280109 32.0688 0.323076 32.6908 0.486312 33.2863C1.58534 37.3637 4.96873 45.1133 15.2351 51.2592C25.5015 57.4051 34.6158 57.3984 39.5 57.3984C44.3842 57.3984 53.4851 57.3984 63.7582 51.2592C74.0312 45.1199 77.408 37.3637 78.507 33.283C78.6712 32.688 78.7153 32.0662 78.6366 31.4539C78.558 30.8416 78.3581 30.2512 78.0488 29.717ZM52.9406 16.5254C55.6743 14.464 58.8132 13.0043 62.1511 12.2422C62.3284 12.206 62.5129 12.2369 62.6687 12.3289C62.8245 12.4209 62.9406 12.5675 62.9945 12.7402C64.3027 16.7976 65.5877 25.1914 59.4783 35.8164C57.0259 40.0072 53.8826 43.7533 50.1814 46.8963C52.7314 42.457 54.7734 36.4572 54.7734 28.5682C54.8044 24.4821 54.1858 20.4172 52.9406 16.5254ZM16.0055 12.7502C16.0574 12.5756 16.1727 12.4267 16.3287 12.3327C16.4847 12.2388 16.6702 12.2065 16.8488 12.2422C20.1867 13.0043 23.3256 14.464 26.0594 16.5254C24.8142 20.4172 24.1955 24.4821 24.2265 28.5682C24.2265 36.4572 26.2685 42.4637 28.8119 46.8863C25.1099 43.7441 21.9665 39.9979 19.515 35.8064C13.4123 25.1914 14.6972 16.7976 16.0055 12.7502ZM17.2805 47.8359C8.216 42.4205 5.27752 35.7433 4.33123 32.2305C4.30642 32.1412 4.2998 32.0479 4.31178 31.9561C4.32376 31.8643 4.35409 31.7758 4.40096 31.6959C4.47305 31.5677 4.59209 31.4725 4.73299 31.4303C7.41641 30.7635 10.2065 30.6426 12.9375 31.075C13.7799 33.4077 14.8277 35.6611 16.0685 37.8086C19.4751 43.6873 24.1204 48.754 29.6818 52.657C25.2974 51.7893 21.0997 50.1574 17.2805 47.8359ZM39.5 53.0355C36.618 50.9769 28.2109 43.6723 28.2109 28.5682C28.2109 14.1713 35.8277 6.87323 39.1015 4.40292C39.2165 4.31671 39.3563 4.27011 39.5 4.27011C39.6437 4.27011 39.7835 4.31671 39.8984 4.40292C43.1722 6.87323 50.789 14.1713 50.789 28.5682C50.789 43.7652 42.4252 50.9803 39.5 53.0355ZM74.6621 32.2437C73.7158 35.7434 70.7773 42.4205 61.7129 47.8492C57.8894 50.166 53.6883 51.7922 49.3015 52.6537C54.863 48.7507 59.5083 43.6839 62.9148 37.8053C64.1612 35.6594 65.2145 33.4072 66.0625 31.075C68.7965 30.6461 71.589 30.7714 74.2736 31.4435C74.4145 31.4857 74.5335 31.581 74.6056 31.7092C74.6514 31.7895 74.6806 31.8782 74.6914 31.9701C74.7022 32.0619 74.6945 32.155 74.6687 32.2437H74.6621Z" fill="#DFDFDF"/>
</svg>
