<svg width="67" height="75" viewBox="0 0 67 75" fill="none" xmlns="http://www.w3.org/2000/svg">
<path d="M33.5 0.698486L35.1873 1.56253C41.7168 4.90475 47.3231 9.80295 51.5114 15.8248C55.0019 14.1668 58.6947 12.9737 62.4955 12.2759L66.875 11.4675V41.2083C66.875 50.0599 63.3587 58.549 57.0997 64.808C50.8407 71.067 42.3516 74.5833 33.5 74.5833C24.6484 74.5833 16.1593 71.067 9.90031 64.808C3.64128 58.549 0.125 50.0599 0.125 41.2083V11.4675L4.50083 12.2759C8.30285 12.9733 11.997 14.1665 15.4886 15.8248C19.6769 9.80295 25.2832 4.90475 31.8127 1.56253L33.5 0.698486ZM21.9226 19.5702C26.4876 22.7696 30.4142 26.7943 33.5 31.4369C36.5862 26.7947 40.5128 22.77 45.0774 19.5702C42.002 15.2962 38.0563 11.7221 33.5 9.08303C28.9438 11.7222 24.9981 15.2963 21.9226 19.5702ZM29.4171 39.1094C26.1452 32.754 21.1145 27.4736 14.925 23.8978C12.59 22.5494 10.114 21.4613 7.54167 20.653V41.2083C7.54167 53.4087 15.9596 63.6437 27.3034 66.425C26.4912 63.0236 26.0817 59.5386 26.0833 56.0417C26.0833 50.0453 27.2663 44.327 29.4171 39.1094ZM35.1836 67.111C41.7627 66.6834 47.9326 63.7685 52.4409 58.9578C56.9492 54.1471 59.4581 47.8013 59.4583 41.2083V20.653C51.9272 23.019 45.348 27.7275 40.679 34.0928C36.0099 40.458 33.4948 48.1476 33.5 56.0417C33.5 59.902 34.0896 63.6215 35.1799 67.111" fill="#EBEBEB"/>
</svg>
