<svg width="98" height="75" viewBox="0 0 98 75" fill="none" xmlns="http://www.w3.org/2000/svg">
<path d="M18.5417 61.0417C18.5417 63.5391 19.5338 65.9343 21.2997 67.7003C23.0657 69.4662 25.4609 70.4583 27.9583 70.4583C30.4558 70.4583 32.851 69.4662 34.6169 67.7003C36.3829 65.9343 37.375 63.5391 37.375 61.0417C37.375 58.5442 36.3829 56.149 34.6169 54.3831C32.851 52.6171 30.4558 51.625 27.9583 51.625C25.4609 51.625 23.0657 52.6171 21.2997 54.3831C19.5338 56.149 18.5417 58.5442 18.5417 61.0417ZM65.625 61.0417C65.625 63.5391 66.6171 65.9343 68.3831 67.7003C70.1491 69.4662 72.5442 70.4583 75.0417 70.4583C77.5391 70.4583 79.9343 69.4662 81.7003 67.7003C83.4662 65.9343 84.4583 63.5391 84.4583 61.0417C84.4583 58.5442 83.4662 56.149 81.7003 54.3831C79.9343 52.6171 77.5391 51.625 75.0417 51.625C72.5442 51.625 70.1491 52.6171 68.3831 54.3831C66.6171 56.149 65.625 58.5442 65.625 61.0417Z" stroke="#EBEBEB" stroke-width="8" stroke-linecap="round" stroke-linejoin="round"/>
<path d="M18.5417 61.0417H9.12501V42.2083M4.41667 4.54166H56.2083V61.0417M37.375 61.0417H65.625M84.4583 61.0417H93.875V32.7917M93.875 32.7917H56.2083M93.875 32.7917L79.75 9.24999H56.2083M9.12501 23.375H27.9583" stroke="#EBEBEB" stroke-width="8" stroke-linecap="round" stroke-linejoin="round"/>
</svg>
