<svg width="75" height="28" viewBox="0 0 75 28" fill="none" xmlns="http://www.w3.org/2000/svg">
<path d="M4.54167 14.0417C4.54167 16.5391 5.53378 18.9343 7.29975 20.7003C9.06572 22.4662 11.4609 23.4583 13.9583 23.4583C16.4558 23.4583 18.851 22.4662 20.6169 20.7003C22.3829 18.9343 23.375 16.5391 23.375 14.0417C23.375 11.5442 22.3829 9.14905 20.6169 7.38308C18.851 5.61711 16.4558 4.625 13.9583 4.625C11.4609 4.625 9.06572 5.61711 7.29975 7.38308C5.53378 9.14905 4.54167 11.5442 4.54167 14.0417ZM51.625 14.0417C51.625 16.5391 52.6171 18.9343 54.3831 20.7003C56.1491 22.4662 58.5442 23.4583 61.0417 23.4583C63.5391 23.4583 65.9343 22.4662 67.7003 20.7003C69.4662 18.9343 70.4583 16.5391 70.4583 14.0417C70.4583 11.5442 69.4662 9.14905 67.7003 7.38308C65.9343 5.61711 63.5391 4.625 61.0417 4.625C58.5442 4.625 56.1491 5.61711 54.3831 7.38308C52.6171 9.14905 51.625 11.5442 51.625 14.0417Z" stroke="#EBEBEB" stroke-width="8" stroke-linecap="round" stroke-linejoin="round"/>
</svg>
